PathFileType	4	(X/Y/Z)	/Users/itak/Documents/Research/Walk-IL/dataset/trc/00468_00167.trc
DataRate	CameraRate	NumFrames	NumMarkers	Units	OrigDataRate	OrigDataStartFrame	OrigNumFrames
100.000000	100.000000	4	53	mm	100.000000	557	637
Frame#	Time	RPSI			LPSI			L3			STRN			T10			C7			CLAV			RBAK			LBAK			LSHO			LUPA			LAEL			LAOL			LWTS			LWPS			LFRA			LIFD			LHPS			LHTS			RSHO			RUPA			RAEL			RAOL			RWTS			RWPS			RFRA			RIFD			RHTS			RHPS			RBHD			LFHD			RFHD			LBHD			LHIP			RHIP			RASI			LASI			LKNE			LTHI			LANK			LTIP			LTOE			LMT1			LMT5			LHEE			RKNE			RTHI			RANK			RTIP			RTOE			RMT1			RMT5			RHEE			
		X1	Y1	Z1	X2	Y2	Z2	X3	Y3	Z3	X4	Y4	Z4	X5	Y5	Z5	X6	Y6	Z6	X7	Y7	Z7	X8	Y8	Z8	X9	Y9	Z9	X10	Y10	Z10	X11	Y11	Z11	X12	Y12	Z12	X13	Y13	Z13	X14	Y14	Z14	X15	Y15	Z15	X16	Y16	Z16	X17	Y17	Z17	X18	Y18	Z18	X19	Y19	Z19	X20	Y20	Z20	X21	Y21	Z21	X22	Y22	Z22	X23	Y23	Z23	X24	Y24	Z24	X25	Y25	Z25	X26	Y26	Z26	X27	Y27	Z27	X28	Y28	Z28	X29	Y29	Z29	X30	Y30	Z30	X31	Y31	Z31	X32	Y32	Z32	X33	Y33	Z33	X34	Y34	Z34	X35	Y35	Z35	X36	Y36	Z36	X37	Y37	Z37	X38	Y38	Z38	X39	Y39	Z39	X40	Y40	Z40	X41	Y41	Z41	X42	Y42	Z42	X43	Y43	Z43	X44	Y44	Z44	X45	Y45	Z45	X46	Y46	Z46	X47	Y47	Z47	X48	Y48	Z48	X49	Y49	Z49	X50	Y50	Z50	X51	Y51	Z51	X52	Y52	Z52	X53	Y53	Z53	

558	5.57	-564.06787109375	965.5223999023438	-387.0958862304688	-582.8233642578125	964.8309936523438	-246.1677551269531	-584.8487548828125	1061.66357421875	-339.0084838867188	-852.30810546875	1259.5185546875	-361.7528076171875	-565.8233032226562	1186.24267578125	-340.7716369628906	-627.1293334960938	1454.81591796875	-366.1986694335938	-814.07177734375	1371.396606445312	-358.8144836425781	-562.6809692382812	1330.65771484375	-455.2647094726562	-600.0535888671875	1409.021362304688	-262.5031127929688	-707.5498657226562	1430.637329101562	-190.3626556396484	-707.00439453125	1313.141845703125	-90.29802703857422	-740.3399658203125	1098.1259765625	-57.07908248901367	-654.9879760742188	1077.958984375	-113.5488662719727	-837.5939331054688	914.0780029296875	-116.4878540039062	-801.4579467773438	888.9152221679688	-56.38286590576172	-771.365234375	1012.642517089844	-51.42806243896484	-893.265869140625	771.9322509765625	-104.8228073120117	-833.422119140625	820.2454223632812	-54.65274810791016	-878.99267578125	845.3455810546875	-105.28662109375	-688.919677734375	1422.352172851562	-526.8275146484375	-672.1558227539062	1362.606201171875	-602.5565795898438	-723.0965576171875	1088.58349609375	-685.8508911132812	-676.4576416015625	1053.725708007812	-650.4415283203125	-890.14306640625	935.2993774414062	-642.4970092773438	-837.1321411132812	898.1665649414062	-703.2537231445312	-747.151611328125	1035.380859375	-697.6296997070312	-959.169677734375	796.90380859375	-661.4827270507812	-944.6322021484375	855.7921752929688	-659.08251953125	-887.91259765625	826.5182495117188	-704.0493774414062	-726.756591796875	1647.452270507812	-468.5710754394531	-859.6076049804688	1662.058349609375	-310.8992004394531	-861.8703002929688	1654.975219726562	-441.2138671875	-707.8488159179688	1662.557373046875	-292.88232421875	-736.454345703125	867.5481567382812	-149.4355926513672	-660.2110595703125	862.2171630859375	-539.3519287109375	-774.2403564453125	904.8670654296875	-494.0843811035156	-822.9334106445312	908.6368408203125	-240.3980865478516	-788.9224243164062	451.323486328125	-189.8610534667969	-795.5006713867188	604.3783569335938	-165.5918273925781	-706.0237426757812	40.81170654296875	-181.0807952880859	-779.595458984375	298.3648376464844	-175.0700378417969	-928.477294921875	43.25443649291992	-280.8751831054688	-848.38720703125	49.79012298583984	-299.182861328125	-859.9479370117188	46.63572692871094	-186.1477355957031	-653.0477294921875	45.38435745239258	-238.7277221679688	-693.0643310546875	470.9906311035156	-494.8333129882812	-701.148681640625	729.02490234375	-548.9957885742188	-679.4860229492188	49.77143478393555	-474.6685485839844	-706.7540893554688	328.9717102050781	-498.8148193359375	-895.9973754882812	46.53241348266602	-431.6705627441406	-830.02734375	47.08759689331055	-394.3028564453125	-813.4325561523438	47.33348083496094	-500.7202758789062	-613.958984375	43.823486328125	-426.9704895019531	
559	5.58	-566.435546875	966.3757934570312	-386.3641967773438	-585.4611206054688	965.861328125	-245.5871276855469	-587.2171020507812	1061.982055664062	-337.703125	-854.1196899414062	1260.3427734375	-360.4816589355469	-567.7887573242188	1186.434204101562	-338.7403869628906	-628.5457763671875	1455.16064453125	-363.4848327636719	-815.5530395507812	1372.095581054688	-357.2500915527344	-563.8333740234375	1331.1591796875	-452.4445190429688	-602.0946044921875	1408.939819335938	-259.7250061035156	-709.9302368164062	1430.485961914062	-188.0215148925781	-710.3408203125	1312.659057617188	-88.36018371582031	-743.955810546875	1097.47265625	-56.17246627807617	-658.0093383789062	1077.830932617188	-111.9921340942383	-838.0020141601562	911.4127807617188	-115.2561950683594	-801.96533203125	887.3091430664062	-54.6729850769043	-773.8836059570312	1011.651245117188	-50.30371475219727	-890.8518676757812	768.0541381835938	-103.2252349853516	-832.5283203125	817.9386596679688	-52.87068557739258	-878.1015014648438	841.765380859375	-104.1138076782227	-689.5756225585938	1422.98779296875	-524.7494506835938	-672.2234497070312	1362.883911132812	-600.2235107421875	-721.7907104492188	1087.6357421875	-681.2369384765625	-675.0014038085938	1053.677612304688	-645.3114013671875	-886.0512084960938	931.4164428710938	-637.6429443359375	-832.4205932617188	895.1228637695312	-698.102783203125	-744.87158203125	1033.9150390625	-692.8499145507812	-952.7311401367188	791.89453125	-656.430419921875	-939.2078247070312	851.0361938476562	-654.0885620117188	-881.9448852539062	822.6552124023438	-698.8886108398438	-727.5567626953125	1648.269897460938	-465.5856018066406	-861.1210327148438	1662.421997070312	-308.4612731933594	-862.8003540039062	1655.674194335938	-438.893798828125	-709.4655151367188	1662.942626953125	-289.7962341308594	-738.5157470703125	868.1475219726562	-148.6773071289062	-662.4893798828125	862.7263793945312	-538.360595703125	-776.6386108398438	905.4459838867188	-493.123291015625	-825.3418579101562	909.1646118164062	-239.3783569335938	-788.3961791992188	451.4992370605469	-188.9567565917969	-796.2958984375	604.6227416992188	-164.9290161132812	-706.1121215820312	40.63557434082031	-180.7666320800781	-779.3948364257812	298.498291015625	-174.3489227294922	-928.391845703125	43.4565315246582	-280.7403869628906	-848.32666015625	50.03050231933594	-298.9755249023438	-859.9718627929688	46.56082153320312	-185.9336700439453	-653.1826171875	45.43424606323242	-238.3778991699219	-694.6610717773438	471.3085327148438	-494.1510009765625	-703.006103515625	729.4722290039062	-548.3177490234375	-679.5379028320312	49.93869018554688	-473.9288330078125	-707.7255249023438	329.2337341308594	-498.2053833007812	-896.3317260742188	46.48708343505859	-431.9318542480469	-830.4976806640625	47.16795349121094	-394.2991333007812	-813.4851684570312	47.39949417114258	-500.5889282226562	-614.26025390625	43.90523147583008	-425.9107055664062	
560	5.59	-568.7289428710938	967.3106079101562	-385.5990600585938	-588.0845947265625	966.8843383789062	-244.9693298339844	-589.5081176757812	1062.336181640625	-336.4606628417969	-855.8416137695312	1261.192138671875	-359.2522888183594	-569.6199951171875	1186.655883789062	-336.8489990234375	-629.9176635742188	1455.494873046875	-360.8930358886719	-816.9854125976562	1372.839721679688	-355.7435607910156	-565.089111328125	1331.66748046875	-449.8470153808594	-604.0585327148438	1408.885498046875	-257.1076049804688	-712.2017822265625	1430.456176757812	-185.8228759765625	-713.613525390625	1312.385009765625	-86.48672485351562	-747.5222778320312	1097.037109375	-55.35243988037109	-660.9814453125	1077.890258789062	-110.5028457641602	-838.3193969726562	908.9303588867188	-113.9856109619141	-802.4137573242188	885.9546508789062	-52.90055084228516	-776.3623657226562	1010.905944824219	-49.21638870239258	-888.2324829101562	764.3646850585938	-101.4570541381836	-831.5280151367188	815.8834228515625	-50.95310974121094	-877.0714721679688	838.3529052734375	-102.8418960571289	-690.2752685546875	1423.709716796875	-522.7272338867188	-672.3907470703125	1363.313598632812	-597.9911499023438	-720.3311157226562	1086.711059570312	-676.4454956054688	-673.4210205078125	1053.748168945312	-639.8893432617188	-881.5899658203125	927.3467407226562	-632.7669677734375	-827.1324462890625	891.958984375	-692.7484130859375	-742.3209228515625	1032.445190429688	-687.8740234375	-945.6029663085938	786.6056518554688	-651.4946899414062	-933.2213134765625	846.0128173828125	-649.1915893554688	-875.2464599609375	818.6270751953125	-693.6236572265625	-728.274658203125	1649.09814453125	-462.5974426269531	-862.5228271484375	1662.740234375	-305.9782409667969	-863.6451416015625	1656.430541992188	-436.5503540039062	-710.9690551757812	1663.246337890625	-286.6980895996094	-740.6121826171875	868.7034912109375	-147.8996124267578	-664.6560668945312	863.1930541992188	-537.2967529296875	-778.9217529296875	906.0003051757812	-492.1680603027344	-827.6845092773438	909.6779174804688	-238.4063415527344	-787.854248046875	451.6197204589844	-188.0220947265625	-797.128173828125	604.8116455078125	-164.1956481933594	-706.2344970703125	40.41402816772461	-180.3946685791016	-779.2266845703125	298.6258544921875	-173.6231231689453	-928.2684326171875	43.66279983520508	-280.6193237304688	-848.2383422851562	50.27043151855469	-298.7685241699219	-860.0089721679688	46.46195220947266	-185.7343902587891	-653.348388671875	45.43417739868164	-237.9377746582031	-696.3751831054688	471.5787658691406	-493.455322265625	-704.946044921875	729.861572265625	-547.5448608398438	-679.5958251953125	50.10542678833008	-473.28125	-708.8026733398438	329.4367065429688	-497.5993041992188	-896.6294555664062	46.44073486328125	-432.1329956054688	-830.9109497070312	47.21430969238281	-394.266845703125	-813.540771484375	47.47180938720703	-500.4420776367188	-614.4935913085938	43.96523284912109	-424.9635314941406	
561	5.600000000000001	-570.95166015625	968.2468872070312	-384.7391357421875	-590.6932373046875	967.7806396484375	-244.2422332763672	-591.7249755859375	1062.676147460938	-335.2351684570312	-857.4747924804688	1262.001098632812	-358.0635070800781	-571.351806640625	1186.87451171875	-335.0597229003906	-631.2565307617188	1455.788208007812	-358.4126281738281	-818.3834228515625	1373.566162109375	-354.2838745117188	-566.4183959960938	1332.144409179688	-447.4432983398438	-605.9598999023438	1408.8349609375	-254.6297149658203	-714.3765869140625	1430.51123046875	-183.7533874511719	-716.8051147460938	1312.27587890625	-84.66172790527344	-750.9925537109375	1096.770263671875	-54.58562469482422	-663.8775024414062	1078.0908203125	-109.0754318237305	-838.5748291015625	906.634765625	-112.6603927612305	-802.8114624023438	884.8222045898438	-51.07953262329102	-778.7709350585938	1010.356872558594	-48.1514778137207	-885.481689453125	760.8964233398438	-99.52976226806641	-830.4520874023438	814.067138671875	-48.9173583984375	-875.9498291015625	835.1295776367188	-101.4523544311523	-691.0162353515625	1424.470825195312	-520.7576904296875	-672.655029296875	1363.849243164062	-595.8610229492188	-718.7403564453125	1085.778442382812	-671.51953125	-671.7337036132812	1053.910400390625	-634.2225952148438	-876.8016967773438	923.1053466796875	-627.86767578125	-821.2928466796875	888.67822265625	-687.1893920898438	-739.5250244140625	1030.958862304688	-682.73583984375	-937.79638671875	781.04345703125	-646.620849609375	-926.6858520507812	840.7222290039062	-644.3610229492188	-867.8402099609375	814.43603515625	-688.2188110351562	-728.92041015625	1649.9208984375	-459.6249694824219	-863.8110961914062	1662.98876953125	-303.4594116210938	-864.4091186523438	1657.219604492188	-434.1804504394531	-712.3609619140625	1663.448974609375	-283.6038513183594	-742.7921142578125	869.1575317382812	-147.0855712890625	-666.6852416992188	863.6038208007812	-536.1585693359375	-781.0928955078125	906.4861450195312	-491.2420654296875	-829.9832153320312	910.097412109375	-237.5010833740234	-787.2469482421875	451.6596374511719	-187.0819854736328	-797.9292602539062	604.8954467773438	-163.3960266113281	-706.359130859375	40.18057632446289	-180.0226287841797	-779.0196533203125	298.7355651855469	-172.9152984619141	-928.1207885742188	43.85271835327148	-280.5235595703125	-848.131103515625	50.48641586303711	-298.583251953125	-860.0420532226562	46.35845565795898	-185.5690460205078	-653.5089721679688	45.37628936767578	-237.4713592529297	-698.1917114257812	471.795654296875	-492.7702331542969	-706.9194946289062	730.1824340820312	-546.7072143554688	-679.660400390625	50.25821304321289	-472.7632751464844	-709.9854736328125	329.572021484375	-497.0196228027344	-896.8743286132812	46.39779281616211	-432.2693481445312	-831.2478637695312	47.22397994995117	-394.20703125	-813.597900390625	47.54594802856445	-500.2882690429688	-614.6661376953125	43.9963493347168	-424.1873474121094	
